<?xml version="1.0" encoding="UTF-8"?>
<!DOCTYPE svg PUBLIC "-//W3C//DTD SVG 1.1//EN" "http://www.w3.org/Graphics/SVG/1.1/DTD/svg11.dtd">
<svg version="1.1" xmlns="http://www.w3.org/2000/svg" xmlns:xlink="http://www.w3.org/1999/xlink" x="0" y="0" width="480" height="140" viewBox="0, 0, 480, 140">
  <g id="Layer_1">
    <path d="M80.62,12.58 C104.91,7.66 129.68,5.22 154.44,5.06 C154.45,7.45 154.46,9.83 154.46,12.22 C142.49,12.25 130.53,13.55 118.83,16.05 C103.85,18.94 89.01,23.91 76.31,32.55 C76.05,32.72 75.54,33.04 75.28,33.21 C65.64,39.82 57.25,49.44 54.68,61.1 C54.11,67.39 54.3,73.75 54.55,80.06 C56.79,93.67 66.49,104.94 78.05,111.89 C90.36,119.07 104.38,122.65 118.37,124.76 C130.3,126.7 142.4,126.98 154.46,126.97 C154.46,129.34 154.45,131.72 154.43,134.09 C147.28,133.54 140.13,133.27 132.97,133.03 C113.1,131.39 93.12,129.45 73.81,124.23 C58.76,120.61 44.01,115.22 30.79,107.07 C21.74,100.96 12.64,93.64 8.74,83.06 C7.69,79.43 6.92,75.7 6.43,71.96 C6.12,59.54 11.53,47.03 21.18,39.11 C37.69,24.29 59.5,17.67 80.62,12.58 z" fill="#05C2FA"/>
    <path d="M204.21,5.15 C245.14,5.1 286.07,5.15 327,5.12 C350.29,5.43 373.56,7.9 396.42,12.42 C416.33,17.15 436.6,23.24 452.98,36 C459.03,40.9 464.33,46.93 467.91,53.83 C469.12,59.19 470.71,64.53 471.05,70.03 C470.82,75.52 469.09,80.82 467.89,86.15 C462.74,95.17 454.59,102.16 445.91,107.71 C433.43,115.09 419.79,120.35 405.72,123.75 C387.38,128.86 368.4,131.04 349.47,132.62 C341.69,133.57 333.81,133.04 326.03,133.95 C285.43,134 244.83,133.97 204.23,133.97 C204.23,131.89 204.22,129.82 204.22,127.75 C213.22,127.69 222.31,127.81 231.2,126.1 C234.76,125.44 237.63,123.16 240.55,121.17 C240.9,99.12 240.6,77.06 240.7,55 C240.57,49.22 241.03,43.4 240.31,37.64 C235.52,44.02 229.85,49.66 224.87,55.87 C214.08,67.78 203.92,80.25 193.43,92.42 C187.29,99.08 181.86,106.38 175.82,113.12 C171.72,114.35 167.05,113.32 162.73,113.58 C152.97,101.26 142.91,89.17 133.14,76.85 C127.93,70.41 122.34,64.27 117.34,57.65 C112.7,52.7 109.33,46.16 102.94,43.18 C94.46,39.15 84.92,38.11 75.65,37.81 C75.55,36.28 75.43,34.74 75.28,33.21 C75.54,33.04 76.05,32.72 76.31,32.55 C107.44,32.45 138.58,32.51 169.71,32.53 C169.7,34.3 169.7,36.07 169.7,37.84 C162.23,37.9 154.75,38.32 147.34,39.2 C145.32,39.85 142.13,39.64 141.3,41.98 C145.15,48.48 150.6,53.84 155.23,59.77 C163.29,70.31 172.47,79.95 180.23,90.71 C183.31,87.97 186.06,84.88 188.68,81.7 C199.42,69.73 209.68,57.33 220.05,45.04 C225.38,39.32 230,32.98 234.71,26.75 C236.99,23.93 237.98,20.34 238.76,16.86 C232.74,13.52 225.79,12.67 219.04,12.12 C214.13,11.33 209.14,11.45 204.19,11.33 C204.2,9.27 204.2,7.21 204.21,5.15 z" fill="#000000"/>
    <path d="M283.7,11.07 C286.12,11.49 288.47,12.35 290.96,12.3 C312.29,12.39 333.85,10.96 354.89,15.26 C371.74,18.2 388.5,23.5 402.69,33.27 C412.66,40.34 421.23,50.55 423.31,62.89 C423.19,70.42 424.44,78.26 421.73,85.48 C417.69,98.99 406.34,109.07 393.91,114.96 C372.44,124.8 348.36,127.09 325,126.89 C313.9,126.93 302.51,126.8 291.89,123.21 C288.05,121.57 282.72,119.03 283.32,114.03 C283.3,84.69 283.32,55.35 283.31,26 C283.34,21.02 283.12,16.03 283.7,11.07 z" fill="#FFFFFF"/>
    <path d="M338.91,43.38 C345.48,42.75 352.63,43.74 357.6,48.47 C350.68,49.33 345.65,43.27 338.91,43.38 z" fill="#403233"/>
    <path d="M311.52,68.04 C316.53,56.55 326.1,45.77 338.91,43.38 C345.65,43.27 350.68,49.33 357.6,48.47 C359.17,48.97 360.24,50.42 361.54,51.38 C361.54,52.96 361.55,54.54 361.57,56.12 C359.09,58.43 355.97,60.44 354.85,63.81 C353.41,68.1 353.45,72.72 353.75,77.18 C353.37,76.95 352.59,76.48 352.21,76.24 C352.12,74.21 352.04,72.17 351.96,70.14 C351.19,69.75 350.42,69.37 349.66,68.98 C349.57,71.25 349.52,73.52 349.53,75.8 C346.02,75.19 342.55,74.37 339.12,73.44 C340.28,71.58 341.44,69.72 342.58,67.85 C345.57,63.67 347.32,58.75 347.3,53.58 C344.86,53.71 342.12,53.34 340.05,54.91 C336.69,57.42 334.6,61.24 333.29,65.16 C332.94,63.86 332.57,62.58 332.2,61.29 C329.42,61.88 326.63,62.41 323.93,63.26 C322,63.92 320.12,64.68 318.22,65.41 C315.98,66.27 313.75,67.16 311.52,68.04 z" fill="#B9303A"/>
    <path d="M361.54,51.38 C362.62,49.44 363.9,47.46 366.27,47.1 C366.39,47.73 366.63,49.01 366.75,49.65 C365.6,50.24 364.45,50.82 363.31,51.42 C363.21,51.87 363.01,52.78 362.91,53.23 C362.73,53.95 362.54,54.66 362.33,55.37 C362.14,55.56 361.76,55.93 361.57,56.12 C361.55,54.54 361.54,52.96 361.54,51.38 z" fill="#0C0C0C"/>
    <path d="M351.46,52.66 C352.98,51.99 354.61,50.8 356.34,51.6 C357.17,53.74 357.51,56.02 357.93,58.27 C355.72,56.45 353.57,54.58 351.46,52.66 z" fill="#31080A"/>
    <path d="M340.05,54.91 C342.12,53.34 344.86,53.71 347.3,53.58 C347.32,58.75 345.57,63.67 342.58,67.85 C339.84,68.4 337.1,68.92 334.35,69.38 C334,67.97 333.64,66.56 333.29,65.16 C334.6,61.24 336.69,57.42 340.05,54.91 z" fill="#28292B"/>
    <path d="M362.91,53.23 C365.46,55.13 368.15,56.87 370.55,58.98 C368.62,59.94 366.68,60.85 364.7,61.69 C363.07,69.5 366.1,78.66 372.94,83.07 C375.92,85.65 379.97,84.28 383.33,83.36 C384.46,87.54 381.32,90.9 378.49,93.48 C376.3,95.59 373.48,96.82 370.69,97.89 C372.52,94.94 374.43,92.03 376.67,89.37 C374.54,89.91 372.37,90.79 370.14,90.45 C367.35,89.23 365.12,87.09 362.77,85.21 C364.56,89.67 366.49,94.26 370.25,97.45 C365.13,99.86 359.84,96.8 354.84,95.57 C356.22,89.42 354.65,83.26 353.75,77.18 C353.45,72.72 353.41,68.1 354.85,63.81 C355.97,60.44 359.09,58.43 361.57,56.12 C361.76,55.93 362.14,55.56 362.33,55.37 C362.54,54.66 362.73,53.95 362.91,53.23 z" fill="#D18120"/>
    <path d="M467.91,53.83 C471.5,58.35 471.64,64.49 471.97,69.99 C471.73,75.51 471.58,81.68 467.89,86.15 C469.09,80.82 470.82,75.52 471.05,70.03 C470.71,64.53 469.12,59.19 467.91,53.83 z" fill="#A0A0A0"/>
    <path d="M342.25,55.95 C343.9,55.74 344.5,59.52 342.82,59.78 C341.6,59.06 341.32,56.99 342.25,55.95 z" fill="#5C5D63"/>
    <path d="M370.55,58.98 L371.21,58.65 C371.18,60.27 371.16,61.89 371.15,63.51 C369.01,62.85 366.85,62.26 364.7,61.69 C366.68,60.85 368.62,59.94 370.55,58.98 z" fill="#AB8459"/>
    <path d="M371.21,58.65 C373.55,59.45 376.58,59.75 377.75,62.29 C379.59,66.09 380.22,70.33 381.46,74.35 C378.86,72.77 378.31,69.69 377.49,67.01 C376.93,67.04 375.79,67.1 375.23,67.13 C375.48,70.25 375.76,73.37 375.96,76.5 C375.48,76.52 374.52,76.57 374.04,76.6 C373.12,73.95 372.07,68.48 368.11,70.81 C368.97,75.16 371.39,78.96 372.94,83.07 C366.1,78.66 363.07,69.5 364.7,61.69 C366.85,62.26 369.01,62.85 371.15,63.51 C371.16,61.89 371.18,60.27 371.21,58.65 z" fill="#D2D1D5"/>
    <path d="M323.93,63.26 C326.63,62.41 329.42,61.88 332.2,61.29 C332.57,62.58 332.94,63.86 333.29,65.16 C333.64,66.56 334,67.97 334.35,69.38 C334.6,72.45 333.08,75.2 331.51,77.7 C336.94,75.15 343.19,75.78 348.44,78.48 C347.67,79.69 346.91,80.91 346.16,82.12 C346.94,82.44 348.51,83.08 349.3,83.4 C349.28,81.92 349.24,80.45 349.19,78.98 C350.19,78.07 351.19,77.15 352.21,76.24 C352.59,76.48 353.37,76.95 353.75,77.18 C354.65,83.26 356.22,89.42 354.84,95.57 C348.01,98.74 340.63,101.41 332.96,100.55 C323.68,99.85 315.24,94.77 308.92,88.13 C307.94,86.97 306.18,85.88 306.73,84.12 C307.66,78.59 309.3,73.19 311.52,68.04 C313.75,67.16 315.98,66.27 318.22,65.41 C318.52,66.29 319.13,68.05 319.43,68.92 C320.9,68.93 322.38,68.93 323.87,68.94 C323.88,67.04 323.9,65.15 323.93,63.26 z" fill="#BD1B12"/>
    <path d="M318.22,65.41 C320.12,64.68 322,63.92 323.93,63.26 C323.9,65.15 323.88,67.04 323.87,68.94 C322.38,68.93 320.9,68.93 319.43,68.92 C319.13,68.05 318.52,66.29 318.22,65.41 z" fill="#99544E"/>
    <path d="M334.35,69.38 C337.1,68.92 339.84,68.4 342.58,67.85 C341.44,69.72 340.28,71.58 339.12,73.44 C342.55,74.37 346.02,75.19 349.53,75.8 C350.2,75.91 351.54,76.13 352.21,76.24 C351.19,77.15 350.19,78.07 349.19,78.98 L348.44,78.48 C343.19,75.78 336.94,75.15 331.51,77.7 C333.08,75.2 334.6,72.45 334.35,69.38 z" fill="#4E1413"/>
    <path d="M375.23,67.13 C375.79,67.1 376.93,67.04 377.49,67.01 C378.31,69.69 378.86,72.77 381.46,74.35 C382.44,75.18 383.51,75.98 384.21,77.11 C384.46,79.23 383.6,81.28 383.33,83.36 C379.97,84.28 375.92,85.65 372.94,83.07 C371.39,78.96 368.97,75.16 368.11,70.81 C372.07,68.48 373.12,73.95 374.04,76.6 C374.52,76.57 375.48,76.52 375.96,76.5 C375.76,73.37 375.48,70.25 375.23,67.13 z" fill="#292924"/>
    <path d="M349.66,68.98 C350.42,69.37 351.19,69.75 351.96,70.14 C352.04,72.17 352.12,74.21 352.21,76.24 C351.54,76.13 350.2,75.91 349.53,75.8 C349.52,73.52 349.57,71.25 349.66,68.98 z" fill="#A86163"/>
    <path d="M317.42,71.47 C319.92,71.13 323.63,70.23 325,73.07 C326.24,75.18 325.63,78.2 323.52,79.52 C321.16,80 318.34,80.11 316.37,78.51 C314.97,76.37 315.08,72.91 317.42,71.47 z" fill="#2A241C"/>
    <path d="M318.58,72.04 C320.2,72.02 321.82,72.01 323.44,72.01 C323.39,74.87 322.58,77.6 320.26,79.42 C319.7,76.96 319.14,74.5 318.58,72.04 z" fill="#60595C"/>
    <path d="M346.16,82.12 C346.91,80.91 347.67,79.69 348.44,78.48 L349.19,78.98 C349.24,80.45 349.28,81.92 349.3,83.4 C348.51,83.08 346.94,82.44 346.16,82.12 z" fill="#A9675D"/>
    <path d="M322.31,81.12 C323.46,81.45 324.62,81.78 325.79,82.12 C325.68,83.26 325.58,84.41 325.48,85.56 C324.49,85.55 323.51,85.54 322.53,85.53 C322.45,84.05 322.37,82.58 322.31,81.12 z" fill="#915B53"/>
    <path d="M332.09,87.12 C333.75,82.91 338.89,84.5 342.35,84.55 C342.51,86.76 342.69,88.96 342.9,91.17 C340.86,92.66 339.08,94.63 336.69,95.54 C334.39,95.66 332.4,94.12 330.37,93.26 C330.9,91.2 331.41,89.13 332.09,87.12 z" fill="#232018"/>
    <path d="M342.35,84.55 C343.75,85.59 345.48,86.4 346.31,88.03 C345.93,89.73 344.37,90.57 342.9,91.17 C342.69,88.96 342.51,86.76 342.35,84.55 z" fill="#914844"/>
    <path d="M362.77,85.21 C365.12,87.09 367.35,89.23 370.14,90.45 C372.37,90.79 374.54,89.91 376.67,89.37 C374.43,92.03 372.52,94.94 370.69,97.89 L370.25,97.45 C366.49,94.26 364.56,89.67 362.77,85.21 z" fill="#2D2518"/>
    <path d="M327.84,87.2 C329.25,87.17 330.67,87.14 332.09,87.12 C331.41,89.13 330.9,91.2 330.37,93.26 C329.13,91.42 328.27,89.37 327.84,87.2 z" fill="#943930"/>
    <path d="M334.77,92.79 C335.19,90.6 335.51,88.39 335.78,86.18 C337.53,88.14 339.59,90.36 338.42,93.19 C337.51,93.09 335.68,92.89 334.77,92.79 z" fill="#585B5D"/>
  </g>
</svg>
